<svg version="1" viewBox="0 0 24 24" xmlns="http://www.w3.org/2000/svg">
  <path
      d="M11.2 4.3c.3.4.7.6 1.1.8-.2.5-.3.9-.4 1.3h-.5c-.3 0-.7-.1-1-.1-.1-.2-.3-.5-.4-.7 0-.1-.1-.2-.1-.2.4-.2.9-.6 1.3-1.1m0-2.3c-.5 0-1 .1-1.5.9-.4.7-1 .7-1.9.7-.8 0-1 .6-.6 1.2.2.3 1.5 2.5 1.8 3 .3.4 1.5.7 2.4.7h.2c.9 0 2.3-.4 2.2-1.1-.1-1.3 1.2-3 1.4-3.2.3-.4.2-1.3-.6-1.3-.2 0-.4 0-.6.1-.2.1-.5.2-.8.2-.2 0-.4-.1-.5-.3-.6-.8-1.1-.9-1.5-.9z"/>
  <path
      d="M9 7.8c.3.5 1.7.7 2.6.7.9 0 2.3-.4 2.2-1.1-.1-1.3 1.2-3 1.4-3.2-.4.2-.7.5-1.1.4-.2.2-.7 1.4-1.7 1.4-.7 0-.8-1-1.3-1s-.6.7-1 .8C9.2 6 8.5 5.1 8 4.5c-.2 0-.6-.3-.8.4.2.2 1.5 2.4 1.8 2.9zM13.6 8.8c-.7.3-1.5.5-2 .5h-.2c-.2 0-1.1 0-1.9-.3C5.2 10.3 2 14.7 2 17.8 2 21.5 6.5 22 12 22s10-.5 10-4.2c0-3.3-3.6-8-8.4-9zm-2 5.7c.1.1.3.3.6.5.6.2 1.1.5 1.4.8.3.3.5.8.5 1.4 0 .5-.2 1-.5 1.3-.3.3-.7.5-1.2.6v.9h-.7v-.9c-.5-.1-1-.3-1.3-.6-.3-.3-.5-.9-.5-1.5h1.3c0 .4.1.7.2.9s.4.3.6.3c.2 0 .4-.1.5-.2.1-.2.2-.4.2-.6 0-.3-.1-.5-.2-.6-.1-.2-.3-.3-.6-.5-.6-.2-1.1-.5-1.4-.8s-.5-.8-.5-1.3.2-1 .5-1.3c.3-.3.7-.5 1.2-.6v-1h.7v1c.5.1.9.3 1.2.7s.4.8.4 1.4h-1.3c0-.3-.1-.6-.2-.8-.1-.2-.3-.3-.5-.3s-.4.1-.5.2c-.1.2-.1.4-.1.6.1.1.1.3.2.4z"/>
</svg>
